<svg width="24" height="24" viewBox="0 0 24 24" fill="none" xmlns="http://www.w3.org/2000/svg">
<path fill-rule="evenodd" clip-rule="evenodd" d="M4.43806 1.68294C6.08025 0.585667 8.01093 0 9.98596 0H9.98602C12.6344 0.00016858 15.1743 1.05231 17.0469 2.92499C18.9196 4.79767 19.9718 7.33753 19.9719 9.9859V9.98596C19.9719 11.961 19.3863 13.8917 18.289 15.5339C17.1917 17.176 15.6321 18.456 13.8074 19.2118C11.9827 19.9676 9.97489 20.1654 8.0378 19.78C6.10071 19.3947 4.32139 18.4437 2.92482 17.0471C1.52826 15.6505 0.577192 13.8712 0.191882 11.9341C-0.193429 9.99704 0.00432669 7.9892 0.76014 6.1645C1.51595 4.3398 2.79588 2.78021 4.43806 1.68294ZM9.9859 1.84615C8.37602 1.84617 6.8023 2.32356 5.46373 3.21796C4.12515 4.11237 3.08185 5.38364 2.46576 6.87099C1.84968 8.35835 1.68849 9.99499 2.00256 11.574C2.31664 13.1529 3.09188 14.6033 4.23025 15.7417C5.36862 16.88 6.819 17.6553 8.39797 17.9694C9.97693 18.2834 11.6136 18.1222 13.1009 17.5062C14.5883 16.8901 15.8596 15.8468 16.754 14.5082C17.6484 13.1696 18.1258 11.5959 18.1258 9.98602M9.98596 1.84615C12.1447 1.84631 14.215 2.70394 15.7415 4.23042C17.268 5.75689 18.1256 7.8272 18.1258 9.98596" fill="white"/>
<path fill-rule="evenodd" clip-rule="evenodd" d="M16.0948 16.0948C16.4553 15.7343 17.0397 15.7343 17.4002 16.0948L23.7296 22.4242C24.0901 22.7847 24.0901 23.3692 23.7296 23.7296C23.3692 24.0901 22.7847 24.0901 22.4242 23.7296L16.0948 17.4002C15.7343 17.0397 15.7343 16.4553 16.0948 16.0948Z" fill="white"/>
</svg>
