<svg width="27" height="26" viewBox="0 0 27 26" fill="none" xmlns="http://www.w3.org/2000/svg">
<path fill-rule="evenodd" clip-rule="evenodd" d="M16.1139 0.315379C16.3237 0.11344 16.6082 0 16.9048 0C17.2015 0 17.486 0.11344 17.6958 0.315379L20.1754 2.70592C20.1762 2.70663 20.1769 2.70733 20.1776 2.70804C20.3766 2.89897 20.4936 3.15506 20.5053 3.42535C20.5171 3.69664 20.422 3.9622 20.239 4.1688L20.2382 4.1697L20.2374 4.1706C19.9541 4.48865 19.8059 4.89794 19.8225 5.31664C19.8391 5.7351 20.019 6.13212 20.3263 6.42839C20.6344 6.7237 21.0469 6.89624 21.4814 6.91155C21.9162 6.92686 22.3409 6.78357 22.6708 6.51032L22.6722 6.50911L22.6737 6.50791C22.8882 6.33171 23.164 6.24009 23.4457 6.25143C23.7266 6.26274 23.9926 6.37554 24.191 6.5673C24.1916 6.5679 24.1922 6.5685 24.1928 6.5691L26.6725 8.95692C26.8822 9.15894 27 9.4329 27 9.71856C27 10.0042 26.8822 10.2782 26.6725 10.4802L22.7158 14.2904C22.4712 14.5259 22.173 14.7035 21.8449 14.8089C21.7816 14.8293 21.724 14.8637 21.6769 14.9093C21.6296 14.955 21.594 15.0106 21.573 15.0718L21.5727 15.0726L21.5724 15.0734C21.4631 15.3895 21.2789 15.6769 21.0344 15.9127L10.8861 25.6846C10.6763 25.8865 10.3918 26 10.0952 26C9.79852 26 9.51402 25.8865 9.30423 25.6846L6.82457 23.2968C6.82395 23.2962 6.82333 23.2956 6.8227 23.295C6.62357 23.104 6.50643 22.8478 6.49469 22.5774C6.4829 22.3061 6.57804 22.0405 6.76103 21.8339L6.76202 21.8328L6.76301 21.8317C7.04657 21.5137 7.19495 21.1044 7.17846 20.6856C7.16197 20.2668 6.98181 19.8695 6.67407 19.5731C6.36632 19.2768 5.9537 19.1033 5.51879 19.0874C5.08389 19.0715 4.6588 19.2144 4.32863 19.4875L4.32748 19.4884L4.32632 19.4894C4.11178 19.6656 3.83601 19.7572 3.55428 19.7459C3.27369 19.7346 3.00784 19.622 2.80959 19.4305C2.80879 19.4297 2.80798 19.429 2.80718 19.4282L0.327509 17.0404C0.117803 16.8383 0 16.5644 0 16.2787C0 15.9931 0.117803 15.7191 0.327509 15.5171L10.4753 5.74734C10.7199 5.51223 11.0178 5.33501 11.3456 5.22962M16.9046 2.00531L13.4298 5.35137C13.3828 5.39666 13.3473 5.45188 13.3263 5.51264C13.2173 5.82899 13.0333 6.11659 12.789 6.35268C12.5443 6.58909 12.2458 6.76734 11.9171 6.8733L11.9159 6.87369C11.8523 6.8941 11.7945 6.92845 11.747 6.97404L2.08222 16.2788L3.67746 17.8149C4.25201 17.4924 4.91375 17.3307 5.587 17.3553C6.47538 17.3878 7.31824 17.7421 7.94687 18.3475C8.57549 18.9528 8.94349 19.7645 8.97717 20.6199C9.00271 21.2682 8.8348 21.9055 8.49988 22.4587L10.0952 23.995L19.7604 14.6882C19.8076 14.6427 19.8432 14.5873 19.8645 14.5263C19.9734 14.2097 20.1574 13.9219 20.4019 13.6857C20.6466 13.4493 20.9451 13.271 21.2738 13.1651L21.2751 13.1647C21.3383 13.1444 21.3957 13.1102 21.4428 13.0649L24.9178 9.71856L23.3229 8.18266C22.7491 8.50526 22.0882 8.66743 21.4156 8.64373C20.5276 8.61245 19.6845 8.25954 19.0551 7.65556L19.0545 7.65496L19.0538 7.65436C18.4256 7.04916 18.0577 6.23786 18.0238 5.38274C17.9981 4.73448 18.1658 4.09725 18.5005 3.54389L16.9046 2.00531ZM12.1571 4.12563C11.9123 4.36135 11.7278 4.64877 11.6184 4.96508L11.6182 4.96583L11.6179 4.96657C11.5969 5.02777 11.5613 5.08341 11.514 5.12907C11.4668 5.17472 11.4091 5.20915 11.3456 5.22962" fill="white"/>
<path fill-rule="evenodd" clip-rule="evenodd" d="M11.6255 5.23334C11.977 4.89488 12.5469 4.89488 12.8983 5.23334L13.827 6.12764C14.1785 6.46609 14.1785 7.01484 13.827 7.3533C13.4755 7.69175 12.9057 7.69175 12.5542 7.35329L11.6255 6.459C11.2741 6.12054 11.2741 5.5718 11.6255 5.23334Z" fill="white"/>
<path fill-rule="evenodd" clip-rule="evenodd" d="M14.4108 7.91651C14.7621 7.5779 15.3319 7.57765 15.6836 7.91595L16.3029 8.51179C16.6545 8.85009 16.6548 9.39884 16.3034 9.73745C15.9521 10.0761 15.3823 10.0763 15.0306 9.738L14.4113 9.14217C14.0597 8.80386 14.0594 8.25512 14.4108 7.91651Z" fill="white"/>
<path fill-rule="evenodd" clip-rule="evenodd" d="M16.888 10.3004C17.2397 9.96208 17.8095 9.96233 18.1608 10.3009L18.7796 10.8973C19.1309 11.2359 19.1306 11.7847 18.779 12.123C18.4274 12.4613 17.8575 12.461 17.5062 12.1224L16.8875 11.526C16.5361 11.1874 16.5364 10.6387 16.888 10.3004Z" fill="white"/>
<path fill-rule="evenodd" clip-rule="evenodd" d="M19.3639 12.6851C19.7154 12.3466 20.2852 12.3466 20.6367 12.6851L21.5654 13.5794C21.9168 13.9178 21.9168 14.4666 21.5654 14.805C21.2139 15.1435 20.6441 15.1435 20.2926 14.805L19.3639 13.9107C19.0124 13.5723 19.0124 13.0235 19.3639 12.6851Z" fill="white"/>
</svg>
